<svg id="Graphic_Elements" data-name="Graphic Elements" xmlns="http://www.w3.org/2000/svg" viewBox="0 0 1200 1200"><defs><style>.cls-1{fill:none;stroke:#000;stroke-miterlimit:10;stroke-width:16.46px;}</style></defs><g id="Graphic_Elements-2" data-name="Graphic Elements"><path class="cls-1" d="M480.1,961.81a338.3,338.3,0,0,1-2.33-166.25c11.61-48.84,34.57-94.19,14.14-145.07-12.93-32.2-36.22-59.85-56-88.11-12.79-18.26-25-38-31.14-59.56-3.66-12.91-9.61-46.15,1.34-56.66,4.65-4.46,11.63-5.19,18.05-5.69,48.81-3.78,98.37-8.35,143.48-28.84,39.52-17.94,65.8-68.46,79.33-108.23,9.32-27.42,13.07-58.33,1.52-84.88s-42-46.18-69.79-38.11c-18.13,5.26-31.86,21-38.75,38.56s-7.81,36.9-7.24,55.77c.26,8.69.7,17.9-3.57,25.48s-15.28,12-21.88,6.35c-3.28-2.8-4.61-7.26-5.2-11.53-1-7.22.35-15.74,6.56-19.57,22.81-14.07,25.37,24.15,31.06,37.11,5.37,12.26,10.65,24.92,18.58,35.81,19.31,26.49,53.25,27,82,18.77,41.75-12,153.94-78.22,171.87-92.47,3.93-3.11,8.09-7.11,7.89-12.12-.27-6.9-8.22-10.47-14.91-12.13-22-5.45-44.65-7.46-67.22-9.4-98-8.46-196.7-16.07-294.6-6.48-19.11,1.88-43.66,1.89-58.12,16.41-3.33,3.33-5.65,8-5,12.67s4,8.55,7.29,12c31.26,32.77,68.11,57.26,104.47,83.62,29.28,21.22,60.31,43.85,92.95,59.65,29.16,14.12,59.47,25.6,89.36,38,22.06,9.2,49,20,34.62,49.72-9.68,20-24.72,31-38.52,47.3-22.08,26.07-43.75,51-52.7,84.36-12.79,47.74,17.83,81.19,54.22,107.85,27.07,19.84,57,38.61,72.57,68.36,18.77,36,11.73,81-7.9,116.53s-50.22,63.45-80.26,90.71"/></g></svg>